<svg width="98" height="81" fill="none" xmlns="http://www.w3.org/2000/svg"><g clip-path="url('#clip0_3495_165')" stroke="#05C2DF" stroke-miterlimit="10"><path d="M62.237 5.253 49.201.108.275 19.026 49 41.5l48.724-22.482L64.887 6.432"/><path d="M47.954 15.935 74.496 28.1v43.83M16 26v14"/><path d="M16.08 43.15v13.645s31.501 27.182 65.659 0V26.309M74.496 80.9c2.451 0 4.438-1.996 4.438-4.458 0-2.463-1.987-4.46-4.438-4.46-2.451 0-4.438 1.997-4.438 4.46 0 2.462 1.987 4.458 4.438 4.458Z"/></g><defs><clipPath id="clip0_3495_165"><path fill="#fff" d="M0 0h98v81H0z"/></clipPath></defs></svg>