<svg width="20" height="15" fill="none" xmlns="http://www.w3.org/2000/svg"><path d="M7.354 14.67c-.818 0-1.66-.06-2.509-.178-1.493-.21-3.004-.91-3.432-1.12l-1.121-.55 1.214-.357c1.327-.391 2.135-.634 3.135-1.014-1.001-.434-1.773-1.216-2.144-2.226l-.283-.768.232.032c-.22-.199-.393-.4-.528-.583-.478-.651-.731-1.446-.677-2.128l.053-.67.448.155a3.508 3.508 0 0 1-.406-1.02c-.195-.873-.032-1.8.462-2.612l.39-.642.522.562c1.652 1.777 3.743 2.831 6.226 3.14a3.017 3.017 0 0 1 .226-1.772c.292-.631.813-1.166 1.505-1.547a4.942 4.942 0 0 1 2.625-.578c.98.054 1.87.383 2.578.952.345-.08.6-.166.943-.282.207-.07.441-.149.735-.24l1.081-.333-.705 1.805a3.98 3.98 0 0 1 .145-.009l1.155-.047-.683.836c-.04.048-.05.062-.063.08-.055.075-.123.167-1.06 1.288-.235.281-.352.647-.33 1.03.083 1.457-.117 2.775-.594 3.917a6.95 6.95 0 0 1-2.076 2.757c-1.147.925-2.61 1.56-4.348 1.883a14.89 14.89 0 0 1-2.716.239Z" fill="#fff"/></svg>