<svg width="107" height="80" fill="none" xmlns="http://www.w3.org/2000/svg"><rect x="22.061" y="1.92" width="84.397" height="59.592" rx="3.5" stroke="#05C2DF"/><path stroke="#05C2DF" d="M21.561 51.571h85.397"/><path stroke="#05C2DF" stroke-linecap="round" d="M60.072 56.778h7.852"/><path stroke="#05C2DF" d="M47.056 62.039h33.888v5.154H47.056zM36.642 73.4h54.716v5.154H36.642zM37.97 72.873l8.723-5.154h34.614l8.722 5.154H37.97Z"/><path d="m44.818 13.727 8 22.364h.091l8-22.364h.773L53.364 37h-1l-8.319-23.273h.773ZM66.355 37V13.727h6.818c1.303 0 2.455.277 3.455.83a5.997 5.997 0 0 1 2.364 2.318c.575.992.863 2.155.863 3.489 0 1.318-.288 2.473-.864 3.465a6.02 6.02 0 0 1-2.363 2.307c-1 .546-2.152.819-3.455.819H66.72v-.728h6.454c1.167 0 2.197-.242 3.091-.727a5.301 5.301 0 0 0 2.103-2.046c.507-.878.76-1.909.76-3.09 0-1.19-.253-2.228-.76-3.114a5.28 5.28 0 0 0-2.103-2.057c-.894-.492-1.924-.739-3.09-.739h-6.092V37h-.727Zm8.864-10.59L80.946 37h-.818L74.4 26.41h.818Z" fill="#05C2DF"/></svg>