<svg width="111" height="82" fill="none" xmlns="http://www.w3.org/2000/svg"><path d="M68.821 41.156c0 7.516-5.965 13.59-13.302 13.59s-13.302-6.075-13.302-13.59 5.965-13.59 13.302-13.59 13.302 6.075 13.302 13.59ZM69.666 26.75c4.574 3.09 7.591 8.388 7.591 14.406 0 6.018-3.017 11.316-7.591 14.406M69.839 55.422l6.21 8.101" stroke="#05C2DF"/><path d="M75.877 63.7a27.281 27.281 0 0 0 12.077-22.72c0-9.491-4.8-17.848-12.077-22.72l-6.211 8.63" stroke="#05C2DF"/><path d="M82.778 9.806c9.773 6.61 16.218 17.946 16.218 30.822 0 12.875-6.445 24.212-16.218 30.821" stroke="#05C2DF"/><path d="M82.778 9.982 88.989 1c12.683 8.535 21.048 23.176 21.048 39.804 0 16.628-8.365 31.268-21.048 39.803l-6.383-9.158M41.371 26.75c-4.574 3.09-7.591 8.388-7.591 14.406 0 6.018 3.017 11.316 7.591 14.406M41.2 55.422l-6.212 8.101" stroke="#05C2DF"/><path d="M35.16 63.7a27.281 27.281 0 0 1-12.077-22.72c0-9.491 4.8-17.848 12.077-22.72l6.211 8.63" stroke="#05C2DF"/><path d="M28.259 9.806c-9.772 6.61-16.218 17.946-16.218 30.822 0 12.875 6.446 24.212 16.218 30.821" stroke="#05C2DF"/><path d="M28.26 9.982 22.047 1C9.365 9.535 1 24.176 1 40.804c0 16.628 8.365 31.268 21.048 39.803l6.384-9.158" stroke="#05C2DF"/></svg>